<svg xmlns="http://www.w3.org/2000/svg" viewBox="0 0 327.56 91.22"><defs><style>.cls-1{fill:#231815;}</style></defs><g id="圖層_2" data-name="圖層 2"><g id="圖層_1-2" data-name="圖層 1"><g id="圖層_2-2" data-name="圖層 2"><g id="圖層_1-2-2" data-name="圖層 1-2"><g id="圖層_2-2-2" data-name="圖層 2-2"><g id="圖層_1-2-2-2" data-name="圖層 1-2-2"><path class="cls-1" d="M105.09,25.66a6.25,6.25,0,0,1,3.24-.87A10,10,0,0,1,115,27.55l5.57-8.39A25.12,25.12,0,0,0,108,15.78a15.9,15.9,0,0,0-11.36,4.46,16.12,16.12,0,0,0-4.85,9.56q-.83,5.54,2.07,8.25a9.59,9.59,0,0,0,2.56,1.65c.67.29,2.27.84,4.8,1.63a16.17,16.17,0,0,1,4.43,1.87A3,3,0,0,1,107,46.26a4.21,4.21,0,0,1-2.19,3.13,7,7,0,0,1-3.7,1q-4.67,0-8.87-4.41l-5.93,8.69A21.52,21.52,0,0,0,100,59.38a22.19,22.19,0,0,0,7.09-1.13q9.72-3.2,11.3-13.68a9.29,9.29,0,0,0-1.09-6.72q-2-3.06-7.42-4.75a28.27,28.27,0,0,1-5.19-1.89,2.82,2.82,0,0,1-1.61-2.84A3.71,3.71,0,0,1,105.09,25.66Z"/><path class="cls-1" d="M261.58,21a24.42,24.42,0,0,0-10.39,16.66Q249.63,48,256.55,54.31a18.91,18.91,0,0,0,13.24,5,29.07,29.07,0,0,0,10-2.09l1.94-12.87a15,15,0,0,1-3.49,2.8,13.16,13.16,0,0,1-6.45,1.75,9.74,9.74,0,0,1-6.9-2.52q-3.43-3.19-2.6-8.71a13.08,13.08,0,0,1,12.89-11.28,10.55,10.55,0,0,1,5.92,1.75A9.67,9.67,0,0,1,283.77,31l1.94-12.87A23.44,23.44,0,0,0,261.58,21Z"/><path class="cls-1" d="M77.91,30.09a6.94,6.94,0,0,1,2.21.43l2.19-14.6a19,19,0,0,0-2-.13,22.15,22.15,0,0,0-13.79,4.72A25.28,25.28,0,0,0,62,25a20.78,20.78,0,0,0-3,5.56,32.29,32.29,0,0,0-1.7,6.77l-.3,2L54.06,59.25H68.69l3-20,.16-1a16.94,16.94,0,0,1,1.26-5A5.22,5.22,0,0,1,77.91,30.09Z"/><path class="cls-1" d="M162.64,20.5a25.05,25.05,0,0,0-4.47,4.5,20.78,20.78,0,0,0-3,5.56,32.94,32.94,0,0,0-1.71,6.77l-.3,2.06-3,19.91H164.8l3-20,.15-1a17,17,0,0,1,1.27-5,5.21,5.21,0,0,1,4.84-3.06,7.3,7.3,0,0,1,2.21.44l2.16-14.6a19,19,0,0,0-2-.13A22.21,22.21,0,0,0,162.64,20.5Z"/><path class="cls-1" d="M78.17,50.17a4.54,4.54,0,1,0,4.53,4.55v0A4.53,4.53,0,0,0,78.17,50.17Z"/><path class="cls-1" d="M55.78,21.34a24.18,24.18,0,0,0-7-13.7A23.43,23.43,0,0,0,39.55,2,50.74,50.74,0,0,0,25.63.51H8.7L0,59.36H16l6.45-43.51h2.67a19.57,19.57,0,0,1,8.6,1.7,10.61,10.61,0,0,1,5.13,4.94,13,13,0,0,1,.94,7.62,15.41,15.41,0,0,1-2.9,7.11A15.65,15.65,0,0,1,30.84,42a19.65,19.65,0,0,1-8.17,1.69H21L18.64,59.32h1.27a40.14,40.14,0,0,0,8.81-.87,35.37,35.37,0,0,0,7.78-2.9,35.48,35.48,0,0,0,7.09-4.67,36.18,36.18,0,0,0,5.77-6.09,34.77,34.77,0,0,0,4.15-7.22,32.61,32.61,0,0,0,2.21-7.86A28.63,28.63,0,0,0,55.78,21.34Z"/><polygon class="cls-1" points="152.93 27.8 154.34 18.44 145.23 18.44 146.77 8.29 133.22 8.29 131.69 18.44 124.91 18.44 123.5 27.8 130.33 27.8 125.6 59.16 139.04 59.16 143.77 27.8 152.93 27.8"/><polygon class="cls-1" points="251.07 27.8 252.48 18.44 243.37 18.44 244.91 8.29 231.37 8.29 229.82 18.44 223.06 18.44 221.65 27.8 228.47 27.8 223.74 59.16 237.19 59.16 241.91 27.8 251.07 27.8"/><path class="cls-1" d="M324.83,24.94c-2.07-2.15-4.91-3.23-8.54-3.22a14.66,14.66,0,0,0-7.4,1.74,19.26,19.26,0,0,0-4.34,3.66L308.08,0H293.75l-7.67,59h14.33L303,39.46a9.32,9.32,0,0,1,2.42-5.68,6.83,6.83,0,0,1,4.87-2,4.32,4.32,0,0,1,4.2,2.31q.83,1.57.19,6.43L312.23,59h12.11l3-23.21C328,31,327.14,27.34,324.83,24.94Z"/><path class="cls-1" d="M201.24,15.73q-9.23,0-14.82,6.08T180,37.57q-.69,8.18,2.89,13.86,4.77,7.62,15.52,7.61a18.89,18.89,0,0,0,13.94-5.45,21.7,21.7,0,0,0,4.92-8.5H205.36c-1.59,2.56-3.66,3.85-6.23,3.85q-7.55,0-6.78-9.14h25.88l.16-1.84a26.52,26.52,0,0,0-1.69-12.62Q212.62,15.73,201.24,15.73Zm-7.86,15.92a9.63,9.63,0,0,1,2.33-4.7A7.08,7.08,0,0,1,201,24.77q5.69,0,6.41,6.87Z"/><polygon class="cls-1" points="168.66 88.17 171.03 73.84 182.12 73.84 181.63 76.8 174.26 76.8 173.72 80.12 180.83 80.12 180.35 83.06 173.23 83.06 172.39 88.17 168.66 88.17"/><path class="cls-1" d="M192.65,88.17l-2.9-5.36H187.8l-.87,5.36h-3.72l2.36-14.34h6.29a8.86,8.86,0,0,1,2.46.29,4.9,4.9,0,0,1,1.81.87,3.16,3.16,0,0,1,1.05,1.49,4.07,4.07,0,0,1,.12,1.9,5,5,0,0,1-.48,1.41,4.83,4.83,0,0,1-1,1.25,5.82,5.82,0,0,1-1.41,1,6.44,6.44,0,0,1-.95.37l3.4,5.8Zm-2-8.16a4.45,4.45,0,0,0,1.26-.16,2.65,2.65,0,0,0,.85-.4,1.58,1.58,0,0,0,.51-.55,2,2,0,0,0,.26-.71,1,1,0,0,0-.33-1.08,3,3,0,0,0-1.86-.44h-2.57L188.28,80Z"/><path class="cls-1" d="M206.85,88.35a9.39,9.39,0,0,1-3.36-.54,5.78,5.78,0,0,1-2.33-1.59A5.54,5.54,0,0,1,200,83.79a8,8,0,0,1,0-3,9.31,9.31,0,0,1,1-3,7.72,7.72,0,0,1,1.94-2.28,8.6,8.6,0,0,1,2.73-1.43,10.74,10.74,0,0,1,3.42-.5,9.66,9.66,0,0,1,3.28.51,5.67,5.67,0,0,1,2.34,1.51A5.12,5.12,0,0,1,215.93,78a7.58,7.58,0,0,1,0,3,8.86,8.86,0,0,1-1,3,8.08,8.08,0,0,1-2,2.32,8.37,8.37,0,0,1-2.74,1.48A10.84,10.84,0,0,1,206.85,88.35Zm2-11.74a5.67,5.67,0,0,0-2,.32,4.5,4.5,0,0,0-2.54,2.25,6.45,6.45,0,0,0-.58,1.87,5.68,5.68,0,0,0,0,1.84,3.29,3.29,0,0,0,.55,1.34,2.65,2.65,0,0,0,1.11.85,4.4,4.4,0,0,0,1.79.32,5.79,5.79,0,0,0,2.06-.34,4.66,4.66,0,0,0,1.5-.93,4.87,4.87,0,0,0,1-1.42,6.75,6.75,0,0,0,.57-1.87,5.62,5.62,0,0,0,0-1.83,2.8,2.8,0,0,0-.55-1.29,2.54,2.54,0,0,0-1.11-.8,4.58,4.58,0,0,0-1.83-.31Z"/><path class="cls-1" d="M232.67,88.17l1.37-8.3-5.26,8.3h-2.67l-2.66-8.54L222,88.17h-3.46l2.37-14.34h4.21l3,9.46v.07l.19-.31,5.87-9.22h4.29l-2.38,14.34Z"/><path class="cls-1" d="M252.21,88.35a5.4,5.4,0,0,1-3.5-1,4.22,4.22,0,0,1-1.38-3.16v-.61l3.68-.51v.71a1.81,1.81,0,0,0,.43,1.26,1.51,1.51,0,0,0,1.06.36,1.93,1.93,0,0,0,1.38-.44,2.51,2.51,0,0,0,.68-1.46l1.1-6.68h-2.91l.49-3h6.61l-1.62,9.84a6,6,0,0,1-.66,1.92,5,5,0,0,1-1.27,1.5,5.73,5.73,0,0,1-1.82.94A7.26,7.26,0,0,1,252.21,88.35Z"/><path class="cls-1" d="M271.91,88.17,271,84.51h-5.3l-2.18,3.66h-3.94l8.61-14.34h3.66l3.83,14.34Zm-1.54-6.55-.92-3.82-2.18,3.82Z"/><path class="cls-1" d="M278,88.17l2.37-14.34h6.31a8.93,8.93,0,0,1,2.52.31,4.78,4.78,0,0,1,1.8.94,3.17,3.17,0,0,1,1,1.56,4.21,4.21,0,0,1,.08,1.9,5.2,5.2,0,0,1-.66,1.8A5.3,5.3,0,0,1,290,81.83a6.82,6.82,0,0,1-2,1,8.68,8.68,0,0,1-2.58.35h-2.94l-.83,5Zm7.43-7.79a4.52,4.52,0,0,0,1.27-.17,2.65,2.65,0,0,0,.87-.44,1.83,1.83,0,0,0,.53-.61,2.68,2.68,0,0,0,.29-.82,1.23,1.23,0,0,0-.31-1.22,3,3,0,0,0-1.92-.47h-2.5L283,80.38Z"/><path class="cls-1" d="M304.05,88.17l-.93-3.66h-5.28l-2.19,3.66h-4l8.61-14.34H304l3.83,14.34Zm-1.55-6.55-.91-3.82-2.19,3.82Z"/><path class="cls-1" d="M321.13,88.17l-6-9.49-.09.6-1.47,8.89H310.1l2.36-14.34h3.72l6.11,9.55a4.64,4.64,0,0,1,.12-.76l1.43-8.79h3.45l-2.36,14.34Z"/><path class="cls-1" d="M56,71.17l2.53.73a47.79,47.79,0,0,1-2.25,4.67L54,90.87H51.52l1.42-8.93c-.55.75-1.11,1.48-1.68,2.18,0-.83-.1-2.07-.22-3.72A40.47,40.47,0,0,0,56,71.17Zm4.53,19.77.73-4.62H58.88l-.19,1.23H56.14l2.09-13.23h4.94l.51-3.17h2.56l-.5,3.17h4.93L68.59,87.51H66l.19-1.19H63.84l-.74,4.62Zm-1.27-7.11h2.4L62,81.49H59.6ZM60,79.15h2.4l.37-2.35H60.39Zm4.21,4.68H66.6l.4-2.34H64.59Zm3.49-7H65.32L65,79.15h2.39Z"/><path class="cls-1" d="M90.59,86.06,87.5,87.42a11.85,11.85,0,0,0,3.5.88c-.15.17-.87,1-2.09,2.54a10.65,10.65,0,0,1-5.67-3.63c-.16.77-.29,1.57-.42,2.42a49.82,49.82,0,0,0-5.37,1.53L76.89,89a3.74,3.74,0,0,0,.76-2.18L78,84.76H76.42a19.71,19.71,0,0,1-2.9,6.46A20.17,20.17,0,0,0,72,88.65q1.84-2.94,3-10.3l1-6.44H92.6l-.92,5.78H88.5l-.24,1.53h3.48l-.32,2H88l-.25,1.54h4l-.32,2h-1.5ZM76.89,82.7H79.7l.24-1.53H77.19Q77,82,76.89,82.7Zm.65-3.49h2.71l.24-1.53H77.76Zm11.85-3.49.25-1.58H78.34l-.25,1.58Zm-7.48,9H80.6L80.09,88l3.1-.87a9.24,9.24,0,0,1-1.29-2.42Zm.29-2h3l.24-1.53h-3Zm.56-3.49h3L86,77.72H83Zm2.81,7,2.71-1.47h-4a7.68,7.68,0,0,0,1.3,1.43Z"/><path class="cls-1" d="M94.36,85.33h13l.18-1.11-12.9.16.17-1.92c3,.05,5.8.09,8.35.1l.16-1H96.46L97.51,75h6.82l.14-.93h-8l.3-1.92h8L105,71h2.53l-.18,1.17h8L115,74h-8l-.15.93h6.86l-1,6.6H111.4c1,1,1.71,1.71,2.18,2.24l-2.07,1.34c-.25-.33-.5-.64-.75-1H110l-.18,1.15h3.73l-.31,1.94h-3.73l-.11.73c-.29,1.8-1.55,2.7-3.76,2.7h-2.9c0-.62,0-1.36-.07-2.24,1.18.09,2.24.14,3.15.14a1.09,1.09,0,0,0,1.18-1h0v-.32h-6.7l.82,1-2.48,1.61c-.48-.9-1-1.78-1.46-2.62H94.05Zm4.92-5.46h4.25l.15-.92H99.41Zm.37-2.34h4.27l.15-.93H99.8Zm9.78,5-.54-.63.58-.37h-3.66l-.16,1Zm.95-2.67.15-.93h-4.31l-.14.93Zm.52-3.28h-4.31l-.15.93h4.32Z"/><path class="cls-1" d="M119.14,71.74h8.18l-1.43,9h-5.56l-1.59,10h-2.62Zm4.57,6.94.24-1.55h-3.06l-.24,1.55Zm.79-4.9h-3l-.25,1.55h3.06Zm4.28-2H137l-2.59,16.38a2.93,2.93,0,0,1-3,2.68c-.91.07-2.06.1-3.45.1a24,24,0,0,0-.21-2.56q1.81.08,2.91.06A1.29,1.29,0,0,0,132,87.25l1-6.49H127.4Zm1.41,6.94h3.06l.24-1.55h-3.05Zm3.85-4.9h-3l-.25,1.55h3.08Z"/><path class="cls-1" d="M143.16,80.2q-1.18,7.6-3.73,10.87a21,21,0,0,0-2-2q2.19-3,3.11-9.27l1.06-6.66h7.61c-.12-.49-.24-1-.37-1.43l3.32-.77c.17.7.35,1.43.51,2.18h6.61l-.4,2.49h-15Zm6-4.24h2.71l-.27,1.67h6.69l-.39,2.43h-6.68l-.29,1.84h5.84l-1.42,8.92h-2.64l.2-1.27h-7.4l-.2,1.27h-2.65L144,81.9h4.13Zm4.58,8.35h-7.39l-.44,2.81h7.39Z"/></g></g></g></g></g></g></svg>